<svg id="Layer_1" data-name="Layer 1" xmlns="http://www.w3.org/2000/svg" viewBox="0 0 122.88 122.67"><defs><style>.cls-1{fill:red;}.cls-2{fill:#fff;}</style></defs><title>reliance-jio</title><path class="cls-1" d="M54.78.2a7.41,7.41,0,0,1-1.54.21A7.41,7.41,0,0,0,51.7.62a5.56,5.56,0,0,1-1.18.21A63.94,63.94,0,0,0,41.09,3.3a2.21,2.21,0,0,1-.71.2.52.52,0,0,0-.38.12,1,1,0,0,1-.52.24,2.86,2.86,0,0,0-.67.2L38,4.39c-.31.14-.75.34-1,.45a1.92,1.92,0,0,1-.66.2.7.7,0,0,0-.42.21.63.63,0,0,1-.42.21.65.65,0,0,0-.42.21.68.68,0,0,1-.43.21.84.84,0,0,0-.46.21.76.76,0,0,1-.43.21.41.41,0,0,0-.29.13,3.53,3.53,0,0,1-.81.5c-.39.2-.83.41-.94.49l-1.47.86A8.66,8.66,0,0,0,29,9.13a.21.21,0,0,1-.19.11,28.07,28.07,0,0,0-3.34,2.2,1.26,1.26,0,0,1-.45.33,6.46,6.46,0,0,0-1.48,1.13.28.28,0,0,1-.25.13c-.12,0-.2.05-.2.11a2.06,2.06,0,0,1-.62.56,35.66,35.66,0,0,0-4.36,4c-3.08,3.1-3.85,3.93-3.85,4.11a.22.22,0,0,1-.11.2,4.38,4.38,0,0,0-.66.74,7.33,7.33,0,0,1-.73.81.35.35,0,0,0-.18.25.75.75,0,0,1-.14.31,24.72,24.72,0,0,0-1.54,2.13,1.23,1.23,0,0,1-.26.37,3,3,0,0,0-.46.66,6.7,6.7,0,0,1-.55.87,10.23,10.23,0,0,0-.84,1.33c-.08.15-.26.46-.42.7a5,5,0,0,0-.4.73,1.45,1.45,0,0,1-.28.39.43.43,0,0,0-.16.36c0,.14,0,.27-.14.27s-.17.15-.22.35a1.15,1.15,0,0,1-.28.5.56.56,0,0,0-.2.41.65.65,0,0,1-.21.42.64.64,0,0,0-.21.38.77.77,0,0,1-.21.41.84.84,0,0,0-.21.46.65.65,0,0,1-.21.43.79.79,0,0,0-.21.51c0,.18-.06.33-.14.33s-.18.17-.23.38a2.48,2.48,0,0,1-.28.68,1.11,1.11,0,0,0-.19.57c0,.17-.07.34-.16.36a.5.5,0,0,0-.19.4,2.85,2.85,0,0,1-.27.77,1.64,1.64,0,0,0-.22.6,1.17,1.17,0,0,1-.13.42A57.73,57.73,0,0,0,1.45,48c-.12.61-.32,1.48-.43,1.92a7.16,7.16,0,0,0-.2,1.33,4.26,4.26,0,0,1-.15,1,13.9,13.9,0,0,0-.27,2c-.07.85-.19,2-.26,2.53a70.65,70.65,0,0,0,0,9c.07.46.18,1.53.25,2.38a11.93,11.93,0,0,0,.28,1.93,3.74,3.74,0,0,1,.15,1,8.29,8.29,0,0,0,.2,1.5c.11.47.31,1.37.43,2A63.82,63.82,0,0,0,3.3,81.24a2.51,2.51,0,0,1,.19.65,1.65,1.65,0,0,0,.21.6,2,2,0,0,1,.21.65c0,.14.07.25.14.25s.14.18.14.4a.88.88,0,0,0,.21.58,1.36,1.36,0,0,1,.29.64c0,.27.14.48.21.48s.13.15.13.34a.76.76,0,0,0,.21.5.7.7,0,0,1,.21.44.9.9,0,0,0,.21.46.78.78,0,0,1,.21.47.66.66,0,0,0,.21.45.65.65,0,0,1,.21.42A.63.63,0,0,0,6.5,89a.7.7,0,0,1,.21.45.39.39,0,0,0,.21.34.42.42,0,0,1,.21.34.44.44,0,0,0,.15.35,1.07,1.07,0,0,1,.29.39,6.28,6.28,0,0,0,.4.73,4.61,4.61,0,0,1,.41.7,8,8,0,0,0,.46.77c.18.27.38.59.44.7A33.54,33.54,0,0,0,11.2,96.7s.3.44.61.87a3,3,0,0,0,.66.81c.07,0,.13.09.13.17a2,2,0,0,0,.46.7c.24.28.55.65.66.82a113.44,113.44,0,0,0,8,8.13c.08,0,.18.09.23.21a.35.35,0,0,0,.28.21.28.28,0,0,1,.26.12,59.57,59.57,0,0,0,6.22,4.5,4.08,4.08,0,0,1,.64.42,2.29,2.29,0,0,0,.77.42c.1,0,.19.06.19.11a2.54,2.54,0,0,0,.77.51,3.67,3.67,0,0,1,.84.52.5.5,0,0,0,.36.12c.14,0,.27.06.27.12a2.28,2.28,0,0,0,.77.46,2.48,2.48,0,0,1,.77.43c0,.07.07.12.16.12a25.07,25.07,0,0,1,2.69,1.2c.21.11.43.18.5.14s.2,0,.3.13a.53.53,0,0,0,.33.21,14.66,14.66,0,0,1,2.12.77,75,75,0,0,0,8,2.31,5.75,5.75,0,0,1,1.09.27,3.87,3.87,0,0,0,1.07.15,1.56,1.56,0,0,1,.81.16,4.08,4.08,0,0,0,1.32.22,5.78,5.78,0,0,1,1.44.22,53.39,53.39,0,0,0,7.58.42,49.87,49.87,0,0,0,7.46-.43,3.25,3.25,0,0,1,1.19-.17,5.57,5.57,0,0,0,1.44-.21,4.17,4.17,0,0,1,1.17-.21,3.64,3.64,0,0,0,1.1-.21,2.89,2.89,0,0,1,.86-.21,4.61,4.61,0,0,0,1.06-.2l2.54-.72A37.32,37.32,0,0,0,83,118.76a1.59,1.59,0,0,1,.64-.19,1,1,0,0,0,.51-.21,1.21,1.21,0,0,1,.57-.21,1.1,1.1,0,0,0,.56-.21,1,1,0,0,1,.53-.21c.14,0,.25-.07.25-.14a.14.14,0,0,1,.15-.14,36.33,36.33,0,0,0,4.2-2,5.53,5.53,0,0,1,.7-.41c.35-.18.82-.45,1-.59l.7-.42a8,8,0,0,0,.7-.42,8,8,0,0,1,.74-.43c.17-.1.31-.23.31-.3a.13.13,0,0,1,.14-.11,17.92,17.92,0,0,0,2.66-1.75,23.3,23.3,0,0,0,2.46-1.82,8.72,8.72,0,0,1,.77-.65,35.92,35.92,0,0,0,4.12-3.87c3.33-3.33,3.87-3.91,3.87-4.07a.21.21,0,0,1,.11-.2,14.42,14.42,0,0,0,1.33-1.58c.06-.07.52-.72,1-1.41s1.09-1.52,1.32-1.85a2.89,2.89,0,0,0,.43-.74.14.14,0,0,1,.14-.14c.07,0,.17-.15.23-.35s.14-.35.21-.35.19-.14.26-.32.27-.51.42-.73a5.25,5.25,0,0,0,.41-.73,1.31,1.31,0,0,1,.28-.39.43.43,0,0,0,.15-.35.42.42,0,0,1,.21-.34.38.38,0,0,0,.21-.35.44.44,0,0,1,.21-.35.37.37,0,0,0,.21-.34.7.7,0,0,1,.21-.45.59.59,0,0,0,.21-.42.65.65,0,0,1,.21-.42.52.52,0,0,0,.22-.32,6.11,6.11,0,0,1,.43-1.06c.45-1,.49-1,1-2.19.17-.39.35-.83.42-1,.4-1,1.61-4.61,2.18-6.59.13-.46.33-1.12.42-1.46a3.87,3.87,0,0,0,.2-1,2.89,2.89,0,0,1,.21-.86,3.72,3.72,0,0,0,.21-1.14,2.65,2.65,0,0,1,.21-1,3.6,3.6,0,0,0,.21-1.26,2.2,2.2,0,0,1,.16-1,8.26,8.26,0,0,0,.28-2c.07-1,.18-2.14.25-2.56a67.43,67.43,0,0,0,0-8.41c-.09-.42-.18-1.53-.25-2.45a10.33,10.33,0,0,0-.27-2,2.8,2.8,0,0,1-.17-1.09,4.35,4.35,0,0,0-.21-1.29,3.27,3.27,0,0,1-.21-1.05,3.5,3.5,0,0,0-.21-1,2.93,2.93,0,0,1-.21-.84,5.2,5.2,0,0,0-.2-1c-.11-.35-.3-1-.42-1.42a64.06,64.06,0,0,0-3.09-8.71,1.5,1.5,0,0,1-.21-.59c0-.13-.06-.23-.14-.23s-.14-.12-.14-.26a.76.76,0,0,0-.19-.47,1.38,1.38,0,0,1-.29-.57c0-.21-.16-.38-.23-.38s-.14-.12-.14-.27a.82.82,0,0,0-.21-.49.72.72,0,0,1-.21-.39.61.61,0,0,0-.15-.35,4.29,4.29,0,0,1-.7-1.2c-.08-.21-.21-.38-.28-.38s-.13-.13-.13-.28a.41.41,0,0,0-.19-.37.51.51,0,0,1-.28-.31,4,4,0,0,0-.37-.65,6.92,6.92,0,0,1-.43-.75c-.1-.17-.23-.31-.3-.31s-.11-.08-.11-.18a9,9,0,0,0-.91-1.43c-.49-.7-1-1.37-1.08-1.51s-.5-.69-.81-1a.75.75,0,0,1-.14-.31.41.41,0,0,0-.17-.25,5,5,0,0,1-.74-.81,4.91,4.91,0,0,0-.66-.74.22.22,0,0,1-.11-.2,3.38,3.38,0,0,0-.59-.77c-1.28-1.33-5.12-5.13-5.71-5.62-.32-.28-.92-.8-1.33-1.12l-1.09-1a1.86,1.86,0,0,0-.45-.33,11.38,11.38,0,0,1-1.19-.82c-1.56-1.12-2.71-1.89-3.94-2.66-.59-.36-1.18-.74-1.33-.84S92.15,8.05,92,8a6.76,6.76,0,0,1-.7-.42c-.23-.14-.93-.53-1.55-.84L88.42,6c-.85-.46-1.12-.57-1.31-.57s-.23-.06-.23-.14-.17-.18-.38-.23A2.18,2.18,0,0,1,86,4.9a2,2,0,0,0-.56-.2,1,1,0,0,1-.5-.24.8.8,0,0,0-.47-.18,1,1,0,0,1-.53-.19.57.57,0,0,0-.36-.17,2.12,2.12,0,0,1-.64-.2,6.05,6.05,0,0,0-.72-.26L80.92,3A60.7,60.7,0,0,0,69.5.4,17.88,17.88,0,0,1,67.68.15,120.62,120.62,0,0,0,54.78.2Z"/><path class="cls-2" d="M61,45.87a6.47,6.47,0,0,1,4.71,4.43c.16.53.2,2.93.2,14,0,14.22,0,14-.7,15.34a9.34,9.34,0,0,1-2.23,2.46c-1.52.81-2.47,1-5.34.87-2.48-.09-3-.23-4.23-1.18a6.88,6.88,0,0,1-2.49-3.87c-.11-.46-.15-4.5-.15-13.55,0-14,0-13.64.77-15.21a6.62,6.62,0,0,1,2-2.26c1.21-.89,2.23-1.15,4.77-1.15a17.46,17.46,0,0,1,2.73.16Z"/><path class="cls-2" d="M92.14,45.1c.54.07,1.2.19,1.47.26l1.33.4a19.58,19.58,0,0,1,11.83,9.81c.27.53.56,1.15.66,1.36a1.59,1.59,0,0,1,.19.63.64.64,0,0,0,.14.4,2.07,2.07,0,0,1,.27.76c.09.35.21.91.3,1.26a13.75,13.75,0,0,1,.51,3.65,13.91,13.91,0,0,1-.09,2.73c-.09.53-.21,1.3-.28,1.71a10.73,10.73,0,0,1-.27,1.19,24,24,0,0,1-1.58,4.11,21.4,21.4,0,0,1-6.55,7.09,19.51,19.51,0,0,1-3.76,2,2.45,2.45,0,0,0-.63.19,18.14,18.14,0,0,1-3.23.84,27,27,0,0,1-7.07,0,18.92,18.92,0,0,1-5.93-2A21,21,0,0,1,71,72.88a9.11,9.11,0,0,1-1.11-2.68,1.36,1.36,0,0,0-.17-.59,5.47,5.47,0,0,1-.28-1c0-.39-.16-1-.23-1.33a27.92,27.92,0,0,1,.07-6.45,17,17,0,0,1,.84-3,2.58,2.58,0,0,0,.19-.59,15.2,15.2,0,0,1,1.32-2.71,3.3,3.3,0,0,0,.36-.61,13.56,13.56,0,0,1,1.07-1.39,19.33,19.33,0,0,1,9.73-6.69l1.52-.43a5.63,5.63,0,0,1,1.41-.24A5.78,5.78,0,0,0,86.81,45a30.14,30.14,0,0,1,5.33.12Z"/><path class="cls-2" d="M40.94,34.54a7.27,7.27,0,0,1,4.34,2.24,6.26,6.26,0,0,1,1.33,1.88l.4.79,0,13.73c0,9.46,0,14.05-.13,14.72a15.23,15.23,0,0,1-1,4.19.77.77,0,0,0-.13.41,1.64,1.64,0,0,1-.19.63l-.7,1.43a11.52,11.52,0,0,1-1.66,2.66,16.23,16.23,0,0,1-7,5.26,21.3,21.3,0,0,1-7.42,1.41c-5.3.3-11.13-1.43-14.06-4.13s-3.73-5.66-2.34-8.65a4,4,0,0,1,.57-1,.22.22,0,0,0,.13-.2,16.71,16.71,0,0,1,2.28-2.8c1.38-1.33,1.6-1.36,2.43-.22a10.4,10.4,0,0,0,4.68,3.25,15.75,15.75,0,0,0,1.79.38,5.67,5.67,0,0,0,2.39,0c1.83-.36,2.24-.54,3.11-1.38,1.08-1,1.37-1.75,1.54-3.77.07-.9.15-7.08.21-13.75.08-13.64,0-12.74,1.16-14.22a8.3,8.3,0,0,1,5.08-2.81,6.8,6.8,0,0,1,3.11,0Z"/><path class="cls-2" d="M61.08,29a7.5,7.5,0,0,1,2.34,1.12,5.67,5.67,0,0,1,2.24,3.2,13.87,13.87,0,0,1,0,4.68,6.6,6.6,0,0,1-4.07,4.23c-.6.23-1.08.27-3.36.27H55.56L54.5,42a5.56,5.56,0,0,1-1.79-1.26,5.77,5.77,0,0,1-1.35-1.86,8.45,8.45,0,0,1,.16-6.8,7.91,7.91,0,0,1,2.55-2.52.65.65,0,0,0,.38-.14,2.53,2.53,0,0,1,.84-.34A24.49,24.49,0,0,1,61.08,29Z"/><path class="cls-1" d="M87.51,56.69a5.9,5.9,0,0,0-2.06.74.57.57,0,0,1-.35.17,9.66,9.66,0,0,0-2.28,2.25,3.53,3.53,0,0,1-.27.55,8.94,8.94,0,0,0-.66,6,7.07,7.07,0,0,0,5.2,5.35,7.26,7.26,0,0,0,6.6-1.54,7.75,7.75,0,0,0,2.47-4.9,6.09,6.09,0,0,0-.06-2.47A6.91,6.91,0,0,0,94,58.65a6.47,6.47,0,0,0-3.65-2,5.75,5.75,0,0,0-2.8,0Z"/></svg>